HIERARCHY
ROOT Hips
{
	OFFSET 0.000000 0.000000 0.000000
	CHANNELS 6 Xposition Yposition Zposition Xrotation Yrotation Zrotation
	JOINT LeftUpLeg_virtual
	{
		OFFSET 0.000000 0.000000 0.000000
		CHANNELS 3 Xrotation Yrotation Zrotation
		JOINT LeftUpLeg
		{
			OFFSET 11.394100 -6.187798 -0.413800
			CHANNELS 3 Xrotation Yrotation Zrotation
			JOINT LeftLeg
			{
				OFFSET 0.430247 -32.302673 3.732800
				CHANNELS 3 Xrotation Yrotation Zrotation
				JOINT LeftFoot
				{
					OFFSET -0.430247 -48.264931 -6.423300
					CHANNELS 3 Xrotation Yrotation Zrotation
					JOINT LeftToeBase
					{
						OFFSET 4.230900 -16.068199 23.438400
						CHANNELS 3 Xrotation Yrotation Zrotation
						JOINT LeftToe_End
						{
							OFFSET 4.510700 0.695400 19.974600
							CHANNELS 3 Xrotation Yrotation Zrotation
							End Site
							{
								OFFSET 0 0 0
							}
						}
					}
				}
			}
		}
	}
	JOINT RightUpLeg_virtual
	{
		OFFSET 0.000000 0.000000 0.000000
		CHANNELS 3 Xrotation Yrotation Zrotation
		JOINT RightUpLeg
		{
			OFFSET -11.333700 -6.187798 -0.413800
			CHANNELS 3 Xrotation Yrotation Zrotation
			JOINT RightLeg
			{
				OFFSET -0.430392 -32.302628 3.733000
				CHANNELS 3 Xrotation Yrotation Zrotation
				JOINT RightFoot
				{
					OFFSET 0.430392 -48.264973 -6.423500
					CHANNELS 3 Xrotation Yrotation Zrotation
					JOINT RightToeBase
					{
						OFFSET -4.230900 -16.068199 23.438400
						CHANNELS 3 Xrotation Yrotation Zrotation
						JOINT RightToe_End
						{
							OFFSET -4.510700 0.695400 19.974600
							CHANNELS 3 Xrotation Yrotation Zrotation
							End Site
							{
								OFFSET 0 0 0
							}
						}
					}
				}
			}
		}
	}
	JOINT Spine_virtual
	{
		OFFSET 0.000000 0.000000 0.000000
		CHANNELS 3 Xrotation Yrotation Zrotation
		JOINT Spine
		{
			OFFSET -0.002400 12.777504 0.315300
			CHANNELS 3 Xrotation Yrotation Zrotation
			JOINT Spine1
			{
				OFFSET -0.002067 5.816869 0.032633
				CHANNELS 3 Xrotation Yrotation Zrotation
				JOINT Spine1_split
				{
					OFFSET -0.002067 5.816869 0.032633
					CHANNELS 3 Xrotation Yrotation Zrotation
					JOINT Spine2
					{
						OFFSET -0.002067 5.816869 0.032633
						CHANNELS 3 Xrotation Yrotation Zrotation
						JOINT Neck_virtual
						{
							OFFSET 0.000000 0.000000 0.000000
							CHANNELS 3 Xrotation Yrotation Zrotation
							JOINT Neck
							{
								OFFSET -0.003700 21.199493 -0.826900
								CHANNELS 3 Xrotation Yrotation Zrotation
								JOINT Head
								{
									OFFSET 0.000000 20.442200 4.834800
									CHANNELS 3 Xrotation Yrotation Zrotation
									JOINT HeadTop_End
									{
										OFFSET 0.000000 34.668396 4.968400
										CHANNELS 3 Xrotation Yrotation Zrotation
										End Site
										{
											OFFSET 0 0 0
										}
									}
								}
							}
						}
						JOINT LeftShoulder_virtual
						{
							OFFSET 0.000000 0.000000 0.000000
							CHANNELS 3 Xrotation Yrotation Zrotation
							JOINT LeftShoulder
							{
								OFFSET 3.288150 8.794197 -1.372250
								CHANNELS 3 Xrotation Yrotation Zrotation
								JOINT LeftShoulder_split
								{
									OFFSET 3.288150 8.794197 -1.372250
									CHANNELS 3 Xrotation Yrotation Zrotation
									JOINT LeftArm
									{
										OFFSET 11.953299 -2.279007 -0.146200
										CHANNELS 3 Xrotation Yrotation Zrotation
										JOINT LeftForeArm
										{
											OFFSET 18.448900 0.000000 0.000000
											CHANNELS 3 Xrotation Yrotation Zrotation
											JOINT LeftHand
											{
												OFFSET 29.527798 0.000000 0.000000
												CHANNELS 3 Xrotation Yrotation Zrotation
												End Site
												{
													OFFSET 0 0 0
												}
											}
										}
									}
								}
							}
						}
						JOINT RightShoulder_virtual
						{
							OFFSET 0.000000 0.000000 0.000000
							CHANNELS 3 Xrotation Yrotation Zrotation
							JOINT RightShoulder
							{
								OFFSET -3.249400 8.794197 -1.372250
								CHANNELS 3 Xrotation Yrotation Zrotation
								JOINT RightShoulder_split
								{
									OFFSET -3.249400 8.794197 -1.372250
									CHANNELS 3 Xrotation Yrotation Zrotation
									JOINT RightArm
									{
										OFFSET -11.953299 -2.279007 -0.146200
										CHANNELS 3 Xrotation Yrotation Zrotation
										JOINT RightForeArm
										{
											OFFSET -18.448900 0.000000 0.000000
											CHANNELS 3 Xrotation Yrotation Zrotation
											JOINT RightHand
											{
												OFFSET -29.527802 0.000000 0.000000
												CHANNELS 3 Xrotation Yrotation Zrotation
												End Site
												{
													OFFSET 0 0 0
												}
											}
										}
									}
								}
							}
						}
					}
				}
			}
		}
	}
}
MOTION
Frames: 9
Frame Time: 0.03333333
6.150486 101.562721 -9.455057 0.000000 0.000000 0.000000 -0.194663 8.577682 2.239039 -11.979785 8.901178 1.521360 19.324302 3.894931 6.131457 -4.718368 -0.440016 -8.162369 -2.307333 -3.934872 3.814308 0.000000 0.000000 0.000000 0.076378 7.539579 2.160997 -1.427290 -8.704034 -0.683300 15.322097 0.155744 -2.887151 -16.007349 -24.549715 7.919380 2.151610 4.394423 -12.172565 0.000000 0.000000 0.000000 0.365407 9.107898 1.519208 2.868854 -1.361869 1.180987 -0.293838 0.166719 1.771568 0.136552 -0.404269 0.013088 0.000000 0.000000 0.000000 1.820455 2.937272 1.762807 2.047261 6.676557 0.448510 -17.755032 -41.908938 -36.483913 0.000000 0.000000 0.000000 0.714304 1.016439 1.115060 1.616564 -27.002787 -5.319820 -0.423981 0.241709 -4.319869 13.443770 8.339144 -81.652337 -1.993075 -20.763936 -1.642207 0.000000 0.000000 0.000000 0.011074 1.260247 2.323693 -4.938187 -4.777094 8.552634 -7.157303 -2.589577 1.382220 20.302141 20.552925 64.227841 -11.092508 17.886589 9.669386 0.000000 0.000000 0.000000 
6.081257 101.552986 -9.360258 0.000000 0.000000 0.000000 -0.189675 8.647726 2.231739 -11.933273 8.874302 1.527463 19.292822 3.949428 6.139850 -4.707857 -0.399439 -8.005232 -2.315924 -3.936416 3.845790 0.000000 0.000000 0.000000 0.053419 7.589652 2.147252 -1.409049 -8.740608 -0.617516 15.403659 0.094055 -2.898475 -16.046980 -24.568856 7.900309 1.903101 4.454301 -12.254145 0.000000 0.000000 0.000000 0.362971 9.150944 1.554061 2.846166 -1.337461 1.138033 -0.333733 0.154797 1.750433 0.145955 -0.436457 -0.002414 0.000000 0.000000 0.000000 1.904823 2.952556 1.767291 2.106710 6.690205 0.504137 -17.982396 -41.736957 -36.563157 0.000000 0.000000 0.000000 0.753647 1.008656 1.142700 1.657767 -27.108184 -5.315225 -0.552829 0.249107 -4.296088 13.638372 8.355060 -81.682369 -2.157847 -21.142716 -1.681072 0.000000 0.000000 0.000000 -0.016940 1.243364 2.389621 -4.834146 -4.965668 8.522852 -7.087788 -2.491152 1.424194 20.463136 20.171133 64.235552 -11.049491 17.682907 9.690431 0.000000 0.000000 0.000000 
5.994544 101.549744 -9.265512 0.000000 0.000000 0.000000 -0.166274 8.745168 2.199759 -11.925494 8.753336 1.513377 19.230992 4.090763 6.178321 -4.681521 -0.257149 -7.949069 -2.409966 -3.925122 3.858941 0.000000 0.000000 0.000000 0.070302 7.672595 2.106253 -1.372180 -8.746902 -0.512627 15.399841 -0.007015 -2.910056 -15.998963 -24.563864 8.002575 1.666490 4.480316 -12.164692 0.000000 0.000000 0.000000 0.364542 9.234849 1.565224 2.814350 -1.307083 1.054504 -0.374154 0.173791 1.779857 0.145223 -0.447110 -0.000075 0.000000 0.000000 0.000000 2.006665 3.004036 1.799009 2.160512 6.603569 0.675246 -18.511151 -41.456564 -36.905623 0.000000 0.000000 0.000000 0.776524 1.032946 1.210394 1.653363 -27.336698 -5.353883 -0.730239 0.198520 -4.284085 13.821470 8.486487 -81.777309 -2.342148 -21.190119 -1.752795 0.000000 0.000000 0.000000 -0.038167 1.266013 2.493171 -4.740189 -5.291021 8.459179 -7.068983 -2.321271 1.563389 20.633662 19.745708 64.152367 -11.010188 17.591391 9.818802 0.000000 0.000000 0.000000 
5.912276 101.555588 -9.179579 0.000000 0.000000 0.000000 -0.123521 8.846094 2.133600 -11.950111 8.547382 1.469457 19.162063 4.313744 6.230585 -4.688719 -0.038045 -7.987528 -2.506929 -3.899127 3.849055 0.000000 0.000000 0.000000 0.122730 7.762168 2.037759 -1.337749 -8.722841 -0.386388 15.301562 -0.146105 -2.933746 -15.974011 -24.529270 8.157020 1.592268 4.463020 -11.928160 0.000000 0.000000 0.000000 0.386434 9.315593 1.539546 2.773759 -1.281981 0.958717 -0.405488 0.225350 1.849104 0.132396 -0.451445 0.011139 0.000000 0.000000 0.000000 2.119337 3.088796 1.843651 2.204938 6.439820 0.940890 -19.307599 -41.097795 -37.452693 0.000000 0.000000 0.000000 0.770110 1.088673 1.304558 1.615693 -27.664932 -5.395955 -1.015065 0.087088 -4.359316 13.894640 8.705801 -81.867194 -2.524137 -20.828122 -1.845218 0.000000 0.000000 0.000000 -0.069450 1.322343 2.610117 -4.681878 -5.705253 8.341051 -7.056513 -2.189873 1.792239 20.770001 19.441560 64.061546 -10.974792 17.717480 9.986595 0.000000 0.000000 0.000000 
5.848353 101.570435 -9.091692 0.000000 0.000000 0.000000 -0.047829 8.940568 2.038745 -12.046114 8.257989 1.406455 19.151739 4.566877 6.293104 -4.726467 0.205771 -8.127660 -2.521075 -3.859488 3.817316 0.000000 0.000000 0.000000 0.207000 7.830694 1.944935 -1.332196 -8.689473 -0.256466 15.147700 -0.329821 -2.978595 -16.031171 -24.463991 8.321116 1.698750 4.407880 -11.592693 0.000000 0.000000 0.000000 0.448633 9.350254 1.456129 2.733436 -1.277206 0.886438 -0.418240 0.306643 1.935101 0.117354 -0.421193 0.008399 0.000000 0.000000 0.000000 2.233675 3.196469 1.882518 2.283983 6.226854 1.266123 -20.237459 -40.725983 -38.110137 0.000000 0.000000 0.000000 0.751394 1.166062 1.393622 1.570756 -28.049941 -5.414445 -1.266182 -0.020676 -4.539746 13.766664 8.906198 -81.869537 -2.688340 -20.170609 -1.936108 0.000000 0.000000 0.000000 -0.118984 1.405179 2.720500 -4.663776 -6.153014 8.111867 -6.985655 -2.155977 2.047752 20.841643 19.352964 64.023017 -10.932581 18.181661 10.139494 0.000000 0.000000 0.000000 
5.801701 101.598373 -9.013239 0.000000 0.000000 0.000000 0.061042 9.023009 1.921788 -12.213726 7.900500 1.337536 19.225842 4.806933 6.352486 -4.804930 0.408675 -8.334101 -2.480808 -3.820075 3.794133 0.000000 0.000000 0.000000 0.324508 7.843914 1.842891 -1.390010 -8.675384 -0.144193 15.023606 -0.565308 -3.036665 -16.111743 -24.370038 8.530549 1.867730 4.335551 -11.207795 0.000000 0.000000 0.000000 0.551216 9.323023 1.324150 2.709309 -1.312401 0.866610 -0.408508 0.402974 2.005089 0.118472 -0.363534 0.001945 0.000000 0.000000 0.000000 2.333865 3.313385 1.894046 2.426772 6.007014 1.600306 -21.090490 -40.430127 -38.724447 0.000000 0.000000 0.000000 0.731897 1.249715 1.444385 1.542561 -28.459298 -5.391287 -1.375609 -0.148803 -4.727445 13.408935 8.993068 -81.731068 -2.772524 -19.357190 -1.973206 0.000000 0.000000 0.000000 -0.175440 1.506631 2.803971 -4.681738 -6.566321 7.745518 -6.800563 -2.213186 2.286930 20.834479 19.503559 64.120204 -10.856036 19.010740 10.190719 0.000000 0.000000 0.000000 
5.788659 101.621758 -8.952501 0.000000 0.000000 0.000000 0.191065 9.069068 1.793945 -12.419289 7.529370 1.283929 19.369588 5.025387 6.386557 -4.915214 0.522834 -8.526519 -2.493031 -3.794804 3.794460 0.000000 0.000000 0.000000 0.447436 7.776623 1.738141 -1.546722 -8.703390 -0.071553 15.008825 -0.826960 -3.096514 -16.141306 -24.250237 8.872563 1.916484 4.266370 -10.820257 0.000000 0.000000 0.000000 0.689319 9.224632 1.155499 2.716257 -1.405013 0.913073 -0.364084 0.505853 2.035874 0.132627 -0.296402 -0.012902 0.000000 0.000000 0.000000 2.397466 3.430243 1.861845 2.633033 5.806326 1.907819 -21.643338 -40.248198 -39.130762 0.000000 0.000000 0.000000 0.738688 1.320543 1.434049 1.541143 -28.852843 -5.323064 -1.339989 -0.234168 -4.938193 12.835350 8.886379 -81.478918 -2.695195 -18.571995 -1.883718 0.000000 0.000000 0.000000 -0.221826 1.616361 2.844267 -4.703060 -6.876979 7.298275 -6.586949 -2.289809 2.534313 20.715759 19.733791 64.299346 -10.730858 20.081332 10.076438 0.000000 0.000000 0.000000 
5.802342 101.615738 -8.913637 0.000000 0.000000 0.000000 0.340050 9.026547 1.678083 -12.661176 7.182679 1.265564 19.587077 5.210327 6.381885 -4.990727 0.533789 -8.660095 -2.639638 -3.792800 3.798076 0.000000 0.000000 0.000000 0.571728 7.619187 1.630461 -1.808483 -8.768183 -0.044425 15.189094 -1.101890 -3.151851 -16.138378 -24.094056 9.345080 1.783328 4.209787 -10.439934 0.000000 0.000000 0.000000 0.840255 9.036246 0.975673 2.780469 -1.567867 1.019407 -0.284543 0.608356 2.015624 0.150896 -0.230822 -0.024725 0.000000 0.000000 0.000000 2.411996 3.535645 1.778724 2.900860 5.662827 2.167221 -21.752740 -40.206045 -39.210682 0.000000 0.000000 0.000000 0.785268 1.370784 1.355960 1.562059 -29.187273 -5.229436 -1.130218 -0.208364 -5.089738 12.089250 8.601507 -81.215341 -2.391642 -17.968510 -1.610765 0.000000 0.000000 0.000000 -0.236467 1.727688 2.832626 -4.717715 -7.031731 6.817781 -6.447214 -2.408024 2.878368 20.429581 19.788007 64.439249 -10.596112 21.288808 9.790731 0.000000 0.000000 0.000000 
5.823828 101.555313 -8.904402 0.000000 0.000000 0.000000 0.502365 8.824782 1.585381 -12.902365 6.919067 1.288548 19.878378 5.393541 6.328183 -5.027876 0.475453 -8.680590 -2.910641 -3.810423 3.766245 0.000000 0.000000 0.000000 0.700782 7.365202 1.521141 -2.178567 -8.857546 -0.058341 15.609474 -1.404828 -3.195468 -16.188518 -23.871161 9.806722 1.617733 4.161288 -10.029365 0.000000 0.000000 0.000000 0.995728 8.756942 0.800855 2.932539 -1.812214 1.157155 -0.180003 0.710390 1.942110 0.163243 -0.193908 -0.027019 0.000000 0.000000 0.000000 2.388924 3.628937 1.641429 3.191166 5.606318 2.368191 -21.400625 -40.287382 -38.876805 0.000000 0.000000 0.000000 0.866150 1.403613 1.225211 1.595837 -29.435824 -5.139472 -0.761074 -0.049335 -5.147674 11.219428 8.295203 -81.046137 -1.812757 -17.630149 -1.122328 0.000000 0.000000 0.000000 -0.210911 1.830673 2.763177 -4.713515 -7.012504 6.397419 -6.444537 -2.517234 3.307972 19.974344 19.374825 64.250223 -10.497412 22.477900 9.348258 0.000000 0.000000 0.000000 
